<mxfile host="65bd71144e">
    <diagram id="dqZssCKXNbCzxsxmnJFw" name="Page-1">
        <mxGraphModel dx="945" dy="758" grid="1" gridSize="10" guides="1" tooltips="1" connect="1" arrows="1" fold="1" page="1" pageScale="1" pageWidth="827" pageHeight="1169" math="0" shadow="0">
            <root>
                <mxCell id="0"/>
                <mxCell id="1" parent="0"/>
                <mxCell id="28" value="" style="rounded=0;whiteSpace=wrap;html=1;sketch=1;fillColor=none;strokeColor=#006658;fontColor=#5C5C5C;" vertex="1" parent="1">
                    <mxGeometry x="291" y="71" width="480" height="230" as="geometry"/>
                </mxCell>
                <mxCell id="29" value="" style="group;sketch=1;" vertex="1" connectable="0" parent="1">
                    <mxGeometry x="291" y="71" width="480" height="30" as="geometry"/>
                </mxCell>
                <mxCell id="30" value="pd_lsn" style="rounded=0;whiteSpace=wrap;html=1;fillColor=#dae8fc;strokeColor=#6c8ebf;sketch=1;" vertex="1" parent="29">
                    <mxGeometry width="240" height="30" as="geometry"/>
                </mxCell>
                <mxCell id="31" value="pg_flags" style="rounded=0;whiteSpace=wrap;html=1;fillColor=#dae8fc;strokeColor=#6c8ebf;sketch=1;" vertex="1" parent="29">
                    <mxGeometry x="300" width="60" height="30" as="geometry"/>
                </mxCell>
                <mxCell id="32" value="pg_checksum" style="rounded=0;whiteSpace=wrap;html=1;fillColor=#dae8fc;strokeColor=#6c8ebf;sketch=1;" vertex="1" parent="29">
                    <mxGeometry x="240" width="60" height="30" as="geometry"/>
                </mxCell>
                <mxCell id="33" value="pg_lower" style="rounded=0;whiteSpace=wrap;html=1;fillColor=#dae8fc;strokeColor=#6c8ebf;sketch=1;" vertex="1" parent="29">
                    <mxGeometry x="360" width="60" height="30" as="geometry"/>
                </mxCell>
                <mxCell id="34" value="pg_upper" style="rounded=0;whiteSpace=wrap;html=1;fillColor=#dae8fc;strokeColor=#6c8ebf;sketch=1;" vertex="1" parent="29">
                    <mxGeometry x="420" width="60" height="30" as="geometry"/>
                </mxCell>
                <mxCell id="35" value="" style="group;sketch=1;" vertex="1" connectable="0" parent="1">
                    <mxGeometry x="291" y="101" width="480" height="30" as="geometry"/>
                </mxCell>
                <mxCell id="36" value="pg_spec" style="rounded=0;whiteSpace=wrap;html=1;fillColor=#dae8fc;strokeColor=#6c8ebf;sketch=1;" vertex="1" parent="35">
                    <mxGeometry width="60" height="30" as="geometry"/>
                </mxCell>
                <mxCell id="37" value="pg_page_v" style="rounded=0;whiteSpace=wrap;html=1;fillColor=#dae8fc;strokeColor=#6c8ebf;sketch=1;" vertex="1" parent="35">
                    <mxGeometry x="60" width="60" height="30" as="geometry"/>
                </mxCell>
                <mxCell id="38" value="pg_prune_i" style="rounded=0;whiteSpace=wrap;html=1;fillColor=#dae8fc;strokeColor=#6c8ebf;sketch=1;" vertex="1" parent="35">
                    <mxGeometry x="120" width="60" height="30" as="geometry"/>
                </mxCell>
                <mxCell id="39" value="pg_prune_i" style="rounded=0;whiteSpace=wrap;html=1;fillColor=#dae8fc;strokeColor=#6c8ebf;sketch=1;" vertex="1" parent="35">
                    <mxGeometry x="180" width="60" height="30" as="geometry"/>
                </mxCell>
                <mxCell id="40" value="pg_linp 0" style="rounded=0;whiteSpace=wrap;html=1;fillColor=#dae8fc;strokeColor=#6c8ebf;sketch=1;" vertex="1" parent="35">
                    <mxGeometry x="240" width="120" height="30" as="geometry"/>
                </mxCell>
                <mxCell id="42" value="spec" style="rounded=0;whiteSpace=wrap;html=1;fillColor=#dae8fc;strokeColor=#6c8ebf;sketch=1;" vertex="1" parent="1">
                    <mxGeometry x="741" y="271" width="30" height="30" as="geometry"/>
                </mxCell>
                <mxCell id="43" value="tuple1" style="rounded=0;whiteSpace=wrap;html=1;fillColor=#dae8fc;strokeColor=#6c8ebf;sketch=1;" vertex="1" parent="1">
                    <mxGeometry x="561" y="271" width="180" height="30" as="geometry"/>
                </mxCell>
                <mxCell id="46" style="edgeStyle=orthogonalEdgeStyle;curved=0;rounded=1;sketch=1;orthogonalLoop=1;jettySize=auto;html=1;entryX=0;entryY=0;entryDx=0;entryDy=0;fontColor=#5C5C5C;strokeColor=#006658;fillColor=#21C0A5;" edge="1" parent="1" source="40" target="43">
                    <mxGeometry relative="1" as="geometry"/>
                </mxCell>
                <mxCell id="48" value="" style="shape=curlyBracket;whiteSpace=wrap;html=1;rounded=1;flipH=1;sketch=1;strokeColor=#6c8ebf;fillColor=#dae8fc;rotation=-90;" vertex="1" parent="1">
                    <mxGeometry x="521" y="-183" width="20" height="480" as="geometry"/>
                </mxCell>
                <mxCell id="49" value="&lt;a style=&quot;border: 0px solid rgb(204, 204, 204); cursor: pointer; color: rgb(79, 130, 180); -webkit-tap-highlight-color: rgb(21, 98, 142); font-family: &amp;quot;Bookman Old Style&amp;quot;, &amp;quot;Times New Roman&amp;quot;, Times, serif; text-align: left; background-color: rgb(255, 255, 255);&quot; id=&quot;category_PageHeaderData&quot;&gt;&lt;font style=&quot;font-size: 11px;&quot;&gt;PageHeaderData&lt;/font&gt;&lt;/a&gt;" style="text;html=1;align=center;verticalAlign=middle;resizable=0;points=[];autosize=1;strokeColor=none;fillColor=none;fontColor=#5C5C5C;sketch=1;" vertex="1" parent="1">
                    <mxGeometry x="481" y="28" width="100" height="30" as="geometry"/>
                </mxCell>
                <mxCell id="50" value="" style="shape=curlyBracket;whiteSpace=wrap;html=1;rounded=1;flipH=1;sketch=1;strokeColor=#6c8ebf;fillColor=#dae8fc;rotation=90;" vertex="1" parent="1">
                    <mxGeometry x="521" y="105" width="20" height="420" as="geometry"/>
                </mxCell>
                <mxCell id="51" value="" style="shape=curlyBracket;whiteSpace=wrap;html=1;rounded=1;flipH=1;sketch=1;strokeColor=#6c8ebf;fillColor=#dae8fc;rotation=0;" vertex="1" parent="1">
                    <mxGeometry x="775" y="131" width="20" height="140" as="geometry"/>
                </mxCell>
                <mxCell id="52" value="" style="endArrow=classic;html=1;rounded=1;sketch=1;fontSize=11;fontColor=#5C5C5C;strokeColor=#006658;fillColor=#21C0A5;curved=0;entryX=1;entryY=0.5;entryDx=0;entryDy=0;" edge="1" parent="1" source="33" target="40">
                    <mxGeometry width="50" height="50" relative="1" as="geometry">
                        <mxPoint x="390" y="450" as="sourcePoint"/>
                        <mxPoint x="771" y="116" as="targetPoint"/>
                        <Array as="points">
                            <mxPoint x="620" y="30"/>
                        </Array>
                    </mxGeometry>
                </mxCell>
                <mxCell id="53" value="" style="endArrow=classic;html=1;rounded=1;sketch=1;fontSize=11;fontColor=#5C5C5C;strokeColor=#006658;fillColor=#21C0A5;curved=0;exitX=1;exitY=0.5;exitDx=0;exitDy=0;entryX=0;entryY=0;entryDx=0;entryDy=0;" edge="1" parent="1" source="34" target="43">
                    <mxGeometry width="50" height="50" relative="1" as="geometry">
                        <mxPoint x="400" y="320" as="sourcePoint"/>
                        <mxPoint x="321" y="271" as="targetPoint"/>
                        <Array as="points">
                            <mxPoint x="810" y="160"/>
                        </Array>
                    </mxGeometry>
                </mxCell>
            </root>
        </mxGraphModel>
    </diagram>
</mxfile>